<svg width="174" height="92" viewBox="0 0 174 92" fill="none" xmlns="http://www.w3.org/2000/svg">
<path d="M172.5 46C172.5 57.8722 163.372 68.9763 147.817 77.2009C132.33 85.3897 110.83 90.5 87 90.5C63.17 90.5 41.6705 85.3897 26.1828 77.2009C10.6276 68.9763 1.5 57.8722 1.5 46C1.5 34.1278 10.6276 23.0237 26.1828 14.7991C41.6705 6.61028 63.17 1.5 87 1.5C110.83 1.5 132.33 6.61028 147.817 14.7991C163.372 23.0237 172.5 34.1278 172.5 46Z" stroke="white" stroke-width="3"/>
<path d="M42.4014 18.119L53.7589 6.63191L38.1069 57.6365L26.7734 71.0457L42.4014 18.119Z" fill="#FFC700"/>
<path d="M42.4014 18.119L53.7589 6.63191L38.1069 57.6365L26.7734 71.0457L42.4014 18.119Z" fill="#FFC700"/>
<path d="M61.4349 43.2519L55.8363 53.2305L48.4607 18.2287L53.2122 7.09526L61.4349 43.2519Z" fill="#FFC700"/>
<path d="M61.4349 43.2519L55.8363 53.2305L48.4607 18.2287L53.2122 7.09526L61.4349 43.2519Z" fill="#FFC700"/>
<rect x="39.2808" y="36.4202" width="18.5205" height="2.43132" fill="#FFC700"/>
<path d="M68.592 33.24V51H64.488V33.24H68.592ZM75.6701 33.24V51H71.5661V33.24H75.6701ZM87.8342 34.152V51H83.7302V34.152H87.8342ZM98.9683 37.464C100.536 37.464 101.784 37.976 102.712 39C103.656 40.008 104.128 41.4 104.128 43.176V51H100.048V43.728C100.048 42.832 99.8163 42.136 99.3523 41.64C98.8883 41.144 98.2643 40.896 97.4803 40.896C96.6963 40.896 96.0723 41.144 95.6083 41.64C95.1443 42.136 94.9123 42.832 94.9123 43.728V51H90.8083V37.608H94.9123V39.384C95.3283 38.792 95.8883 38.328 96.5923 37.992C97.2963 37.64 98.0883 37.464 98.9683 37.464Z" fill="white"/>
<path d="M48.928 61.928C49.2693 62.2587 49.648 62.5093 50.064 62.68C50.48 62.8507 50.912 62.9733 51.36 63.048C51.808 63.112 52.2667 63.1493 52.736 63.16C53.2053 63.16 53.6587 63.16 54.096 63.16C54.256 63.16 54.4693 63.1547 54.736 63.144C55.0133 63.1333 55.3067 63.112 55.616 63.08C55.936 63.0373 56.256 62.984 56.576 62.92C56.896 62.8453 57.184 62.7493 57.44 62.632C57.7067 62.5147 57.92 62.376 58.08 62.216C58.2507 62.0453 58.336 61.8427 58.336 61.608C58.336 61.3733 58.2453 61.1707 58.064 61C57.8933 60.8187 57.6693 60.664 57.392 60.536C57.1147 60.408 56.8 60.3013 56.448 60.216C56.1067 60.12 55.7653 60.0507 55.424 60.008C55.0827 59.9547 54.7627 59.9173 54.464 59.896C54.176 59.8747 53.9413 59.864 53.76 59.864H53.776C53.52 59.8533 53.2053 59.8267 52.832 59.784C52.4587 59.7413 52.0693 59.6773 51.664 59.592C51.2587 59.5067 50.8533 59.4 50.448 59.272C50.0427 59.1333 49.68 58.968 49.36 58.776C49.04 58.584 48.7787 58.36 48.576 58.104C48.3733 57.8373 48.272 57.5333 48.272 57.192C48.272 56.8187 48.368 56.4987 48.56 56.232C48.7627 55.9653 49.0187 55.7413 49.328 55.56C49.648 55.368 50.0053 55.2187 50.4 55.112C50.7947 54.9947 51.1947 54.904 51.6 54.84C52.0053 54.776 52.3893 54.7333 52.752 54.712C53.1253 54.6907 53.44 54.68 53.696 54.68C54.112 54.68 54.5333 54.7013 54.96 54.744C55.3973 54.776 55.824 54.84 56.24 54.936C56.656 55.032 57.0613 55.1653 57.456 55.336C57.8507 55.496 58.2133 55.704 58.544 55.96L57.696 56.568C57.3867 56.3547 57.0613 56.1893 56.72 56.072C56.3787 55.944 56.0267 55.848 55.664 55.784C55.3013 55.72 54.9333 55.6827 54.56 55.672C54.1867 55.6507 53.824 55.64 53.472 55.64C53.2267 55.64 52.8907 55.656 52.464 55.688C52.048 55.72 51.632 55.7893 51.216 55.896C50.8107 55.992 50.4587 56.1467 50.16 56.36C49.8613 56.5627 49.712 56.84 49.712 57.192C49.712 57.5333 49.856 57.8107 50.144 58.024C50.432 58.2267 50.8107 58.392 51.28 58.52C51.7493 58.6373 52.2827 58.7333 52.88 58.808C53.488 58.872 54.1067 58.9413 54.736 59.016C55.3653 59.0907 55.9787 59.1813 56.576 59.288C57.184 59.384 57.7227 59.528 58.192 59.72C58.6613 59.9013 59.04 60.1467 59.328 60.456C59.616 60.7547 59.76 61.1387 59.76 61.608C59.76 61.9387 59.6587 62.232 59.456 62.488C59.264 62.744 59.008 62.968 58.688 63.16C58.368 63.3413 58.0053 63.496 57.6 63.624C57.2053 63.7413 56.8053 63.8373 56.4 63.912C56.0053 63.9867 55.6267 64.04 55.264 64.072C54.9013 64.104 54.6027 64.12 54.368 64.12H53.168C52.7307 64.12 52.272 64.104 51.792 64.072C51.312 64.04 50.8427 63.9707 50.384 63.864C49.9253 63.7467 49.488 63.5867 49.072 63.384C48.656 63.1813 48.288 62.904 47.968 62.552L48.928 61.928ZM46.64 62.216C47.0667 62.9093 47.5733 63.448 48.16 63.832C48.7467 64.2053 49.3813 64.4827 50.064 64.664C50.7467 64.8347 51.4507 64.936 52.176 64.968C52.912 65 53.6427 65.016 54.368 65.016C54.688 65.016 55.0667 64.9947 55.504 64.952C55.9413 64.8987 56.3947 64.8187 56.864 64.712C57.3333 64.6053 57.792 64.4667 58.24 64.296C58.6987 64.1147 59.104 63.9013 59.456 63.656C59.8187 63.4 60.1067 63.1067 60.32 62.776C60.544 62.4347 60.656 62.0453 60.656 61.608C60.656 61.0853 60.5387 60.6427 60.304 60.28C60.08 59.9067 59.7813 59.5973 59.408 59.352C59.0453 59.096 58.624 58.8933 58.144 58.744C57.6747 58.584 57.1893 58.4613 56.688 58.376C56.1867 58.2907 55.696 58.2267 55.216 58.184C54.736 58.1413 54.3093 58.104 53.936 58.072C53.808 58.0613 53.5627 58.04 53.2 58.008C52.8373 57.9653 52.464 57.912 52.08 57.848C51.696 57.7733 51.3547 57.6827 51.056 57.576C50.7573 57.4693 50.608 57.3413 50.608 57.192C50.608 57.0213 50.7467 56.8933 51.024 56.808C51.3013 56.7227 51.616 56.6587 51.968 56.616C52.3307 56.5733 52.6773 56.552 53.008 56.552C53.3493 56.5413 53.5787 56.536 53.696 56.536C54.0373 56.536 54.384 56.552 54.736 56.584C55.088 56.6053 55.4293 56.6587 55.76 56.744C56.1013 56.8293 56.4213 56.952 56.72 57.112C57.0293 57.272 57.312 57.48 57.568 57.736L59.904 56.168C59.4987 55.6133 59.04 55.1813 58.528 54.872C58.016 54.552 57.472 54.312 56.896 54.152C56.32 53.992 55.7173 53.8907 55.088 53.848C54.4693 53.8053 53.8453 53.784 53.216 53.784C52.8853 53.784 52.5067 53.8107 52.08 53.864C51.664 53.9067 51.2373 53.9813 50.8 54.088C50.3733 54.1947 49.952 54.3333 49.536 54.504C49.1307 54.6747 48.768 54.888 48.448 55.144C48.128 55.4 47.872 55.6987 47.68 56.04C47.488 56.3707 47.392 56.7547 47.392 57.192C47.392 57.6933 47.5147 58.1253 47.76 58.488C48.0053 58.8507 48.3307 59.16 48.736 59.416C49.1413 59.672 49.6 59.88 50.112 60.04C50.624 60.2 51.1413 60.3333 51.664 60.44C52.1973 60.536 52.7093 60.616 53.2 60.68C53.7013 60.7333 54.1387 60.7813 54.512 60.824C54.6187 60.8347 54.8267 60.856 55.136 60.888C55.456 60.92 55.7867 60.968 56.128 61.032C56.4693 61.0853 56.7733 61.16 57.04 61.256C57.3067 61.352 57.44 61.4693 57.44 61.608C57.44 61.7253 57.3547 61.8267 57.184 61.912C57.0133 61.9867 56.7947 62.0507 56.528 62.104C56.2613 62.1467 55.968 62.1787 55.648 62.2C55.328 62.2213 55.0133 62.2373 54.704 62.248C54.4053 62.2587 54.1333 62.264 53.888 62.264C53.6533 62.264 53.488 62.264 53.392 62.264C52.9867 62.264 52.5867 62.248 52.192 62.216C51.7973 62.1733 51.4133 62.0987 51.04 61.992C50.6667 61.8747 50.3147 61.7147 49.984 61.512C49.6533 61.3093 49.3547 61.0373 49.088 60.696L46.64 62.216ZM48.96 60.296L48.192 59.512C47.8187 59.2347 47.5253 58.9093 47.312 58.536C47.0987 58.152 46.992 57.704 46.992 57.192C46.992 56.7013 47.0933 56.2693 47.296 55.896C47.5093 55.512 47.7867 55.1813 48.128 54.904C48.4693 54.6267 48.8587 54.392 49.296 54.2C49.7333 53.9973 50.1813 53.8373 50.64 53.72C51.0987 53.6027 51.552 53.5173 52 53.464C52.448 53.4107 52.8533 53.384 53.216 53.384C53.8453 53.384 54.48 53.4053 55.12 53.448C55.76 53.48 56.384 53.576 56.992 53.736C57.6107 53.896 58.2027 54.1413 58.768 54.472C59.3333 54.8027 59.8613 55.2667 60.352 55.864C60.6827 56.1947 60.944 56.472 61.136 56.696C61.328 56.9093 61.4773 57.0907 61.584 57.24C61.7013 57.3893 61.7867 57.512 61.84 57.608C61.8933 57.6933 61.9467 57.7733 62 57.848L59.952 59.224C60.0053 59.2773 60.064 59.3253 60.128 59.368C60.2027 59.4 60.304 59.4693 60.432 59.576C60.56 59.6827 60.7253 59.8373 60.928 60.04C61.1413 60.232 61.424 60.5093 61.776 60.872C62.032 61.1387 62.2347 61.48 62.384 61.896C62.5333 62.312 62.608 62.7493 62.608 63.208C62.608 63.688 62.4907 64.1147 62.256 64.488C62.0213 64.8613 61.7173 65.1867 61.344 65.464C60.9707 65.7413 60.544 65.976 60.064 66.168C59.584 66.36 59.0987 66.5147 58.608 66.632C58.1173 66.7493 57.6373 66.8347 57.168 66.888C56.7093 66.9413 56.3093 66.968 55.968 66.968C55.3387 66.968 54.6987 66.968 54.048 66.968C53.3973 66.968 52.7573 66.9147 52.128 66.808C51.5093 66.7013 50.9067 66.5253 50.32 66.28C49.7333 66.0347 49.1947 65.6613 48.704 65.16C48.288 64.776 47.936 64.44 47.648 64.152C47.3707 63.8533 47.1307 63.5867 46.928 63.352C46.736 63.1067 46.5707 62.8827 46.432 62.68C46.304 62.4773 46.1813 62.28 46.064 62.088L48.96 60.296ZM70.521 55.656C69.8917 55.656 69.305 55.7253 68.761 55.864C68.2277 55.992 67.7637 56.2053 67.369 56.504C66.9743 56.792 66.6597 57.176 66.425 57.656C66.201 58.136 66.089 58.7173 66.089 59.4C66.089 60.0933 66.201 60.68 66.425 61.16C66.6597 61.6293 66.9743 62.0133 67.369 62.312C67.7637 62.6107 68.2277 62.824 68.761 62.952C69.305 63.08 69.8917 63.144 70.521 63.144H72.265C73.0117 63.144 73.737 63.032 74.441 62.808C75.1557 62.5733 75.769 62.168 76.281 61.592L77.305 62.232C77.0063 62.648 76.665 62.984 76.281 63.24C75.897 63.4853 75.4863 63.672 75.049 63.8C74.6117 63.928 74.153 64.0133 73.673 64.056C73.2037 64.0987 72.7343 64.12 72.265 64.12H70.521C69.7423 64.12 69.017 64.04 68.345 63.88C67.6837 63.7093 67.1077 63.4373 66.617 63.064C66.137 62.68 65.7583 62.1893 65.481 61.592C65.2143 60.9947 65.081 60.264 65.081 59.4C65.081 58.536 65.2143 57.8053 65.481 57.208C65.7583 56.6107 66.137 56.1253 66.617 55.752C67.1077 55.368 67.6837 55.096 68.345 54.936C69.017 54.7653 69.7423 54.68 70.521 54.68H72.265C72.7343 54.68 73.2037 54.7013 73.673 54.744C74.153 54.7867 74.6117 54.872 75.049 55C75.4863 55.128 75.897 55.32 76.281 55.576C76.665 55.8213 77.0063 56.152 77.305 56.568L76.281 57.208C75.769 56.632 75.1557 56.232 74.441 56.008C73.737 55.7733 73.0117 55.656 72.265 55.656H70.521ZM72.265 56.552C73.033 56.552 73.737 56.696 74.377 56.984C75.017 57.2613 75.561 57.72 76.009 58.36L78.553 56.856C78.1903 56.2373 77.785 55.7307 77.337 55.336C76.889 54.9307 76.3983 54.616 75.865 54.392C75.3423 54.1573 74.777 53.9973 74.169 53.912C73.5717 53.8267 72.937 53.784 72.265 53.784H70.521C69.593 53.784 68.7397 53.8907 67.961 54.104C67.193 54.3067 66.5263 54.632 65.961 55.08C65.4063 55.528 64.969 56.1093 64.649 56.824C64.3397 57.528 64.185 58.3867 64.185 59.4C64.185 60.4133 64.3397 61.2773 64.649 61.992C64.969 62.696 65.4063 63.272 65.961 63.72C66.5263 64.168 67.193 64.4987 67.961 64.712C68.7397 64.9147 69.593 65.016 70.521 65.016H72.265C72.937 65.016 73.5717 64.9733 74.169 64.888C74.777 64.8027 75.3423 64.648 75.865 64.424C76.3983 64.1893 76.889 63.8747 77.337 63.48C77.785 63.0853 78.1903 62.5733 78.553 61.944L76.009 60.44C75.561 61.08 75.017 61.544 74.377 61.832C73.737 62.1093 73.033 62.248 72.265 62.248H70.521C70.041 62.248 69.5877 62.2 69.161 62.104C68.7343 62.008 68.361 61.8533 68.041 61.64C67.721 61.416 67.465 61.1227 67.273 60.76C67.081 60.3973 66.985 59.944 66.985 59.4C66.985 58.8667 67.081 58.4187 67.273 58.056C67.465 57.6933 67.721 57.4 68.041 57.176C68.3717 56.952 68.7503 56.792 69.177 56.696C69.6037 56.6 70.0517 56.552 70.521 56.552H72.265ZM66.585 65.224C65.977 64.6907 65.4917 64.1947 65.129 63.736C64.7663 63.2667 64.4837 62.808 64.281 62.36C64.0783 61.9013 63.945 61.432 63.881 60.952C63.817 60.472 63.785 59.9547 63.785 59.4C63.785 58.312 63.9503 57.3893 64.281 56.632C64.6117 55.864 65.0757 55.24 65.673 54.76C66.2703 54.28 66.9797 53.9333 67.801 53.72C68.633 53.496 69.5397 53.384 70.521 53.384H72.265C72.873 53.384 73.4543 53.4107 74.009 53.464C74.5743 53.5067 75.1343 53.6347 75.689 53.848C76.2437 54.0613 76.809 54.3813 77.385 54.808C77.961 55.2347 78.5797 55.8267 79.241 56.584C79.3477 56.7013 79.465 56.84 79.593 57C79.721 57.16 79.8437 57.3307 79.961 57.512C80.0783 57.6933 80.1957 57.88 80.313 58.072C80.4303 58.2533 80.537 58.424 80.633 58.584L77.513 60.424L76.297 59.208C75.9237 58.9627 75.5343 58.7867 75.129 58.68C74.7237 58.5627 74.3023 58.504 73.865 58.504H72.121C71.6943 58.504 71.289 58.5467 70.905 58.632C70.521 58.7173 70.1797 58.856 69.881 59.048C69.593 59.24 69.3637 59.496 69.193 59.816C69.0223 60.136 68.937 60.5307 68.937 61C68.937 61.256 68.9583 61.4693 69.001 61.64C69.225 61.7147 69.465 61.768 69.721 61.8C69.977 61.832 70.2437 61.848 70.521 61.848H72.265C72.969 61.848 73.6303 61.6987 74.249 61.4C74.8783 61.1013 75.433 60.6053 75.913 59.912L79.113 61.8L80.633 63.416C80.2063 64.1413 79.7423 64.7333 79.241 65.192C78.7503 65.6507 78.2223 66.008 77.657 66.264C77.0917 66.5307 76.4943 66.712 75.865 66.808C75.2357 66.9147 74.569 66.968 73.865 66.968H72.121C71.577 66.968 71.0383 66.9307 70.505 66.856C69.9823 66.792 69.4757 66.6853 68.985 66.536C68.505 66.3973 68.057 66.216 67.641 65.992C67.2357 65.7787 66.8837 65.5227 66.585 65.224ZM93.7789 59.88H84.8509V64.12H83.8749V54.68H84.8509V58.92H93.7789V54.68H94.7709V64.12H93.7789V59.88ZM95.6669 53.784H92.8829V58.04H85.7469V53.784H82.9789V65.016H85.7469V60.76H92.8829V65.016H95.6669V53.784ZM87.6989 57.64H92.4829V53.384H96.0669L97.6189 55.032V66.968H94.1309L92.4829 65.416V62.712H87.6989V66.968H84.2269L82.5789 65.416V53.384H86.1469L87.6989 55.032V57.64ZM108.393 63.144C109.011 63.144 109.587 63.08 110.121 62.952C110.665 62.8133 111.134 62.6 111.529 62.312C111.934 62.0133 112.249 61.6293 112.473 61.16C112.697 60.68 112.809 60.0933 112.809 59.4C112.809 58.7173 112.691 58.136 112.457 57.656C112.233 57.176 111.923 56.792 111.529 56.504C111.134 56.2053 110.665 55.992 110.121 55.864C109.587 55.7253 109.011 55.656 108.393 55.656H106.633C106.003 55.656 105.417 55.7253 104.873 55.864C104.339 55.992 103.875 56.2053 103.481 56.504C103.086 56.792 102.771 57.176 102.537 57.656C102.313 58.136 102.201 58.7173 102.201 59.4C102.201 60.0933 102.313 60.68 102.537 61.16C102.771 61.6293 103.086 62.0133 103.481 62.312C103.875 62.6107 104.339 62.824 104.873 62.952C105.417 63.08 106.003 63.144 106.633 63.144H108.393ZM106.633 62.248C106.153 62.248 105.699 62.2 105.273 62.104C104.846 62.008 104.473 61.8533 104.153 61.64C103.833 61.416 103.577 61.1227 103.385 60.76C103.193 60.3973 103.097 59.944 103.097 59.4C103.097 58.8667 103.193 58.4187 103.385 58.056C103.577 57.6933 103.833 57.4 104.153 57.176C104.483 56.952 104.862 56.792 105.289 56.696C105.715 56.6 106.163 56.552 106.633 56.552H108.393C108.862 56.552 109.31 56.6 109.737 56.696C110.163 56.792 110.537 56.952 110.857 57.176C111.177 57.4 111.433 57.6933 111.625 58.056C111.817 58.4187 111.913 58.8667 111.913 59.4C111.913 59.9333 111.817 60.3813 111.625 60.744C111.443 61.1067 111.193 61.4 110.873 61.624C110.553 61.848 110.179 62.008 109.753 62.104C109.326 62.2 108.873 62.248 108.393 62.248H106.633ZM101.193 59.4C101.193 58.536 101.326 57.8053 101.593 57.208C101.87 56.6107 102.249 56.1253 102.729 55.752C103.219 55.368 103.795 55.096 104.457 54.936C105.129 54.7653 105.854 54.68 106.633 54.68H108.393C109.171 54.68 109.891 54.7653 110.553 54.936C111.214 55.1067 111.785 55.3787 112.265 55.752C112.755 56.1253 113.134 56.6107 113.401 57.208C113.678 57.8053 113.817 58.536 113.817 59.4C113.817 60.264 113.678 60.9947 113.401 61.592C113.134 62.1893 112.755 62.6747 112.265 63.048C111.785 63.4213 111.214 63.6933 110.553 63.864C109.891 64.0347 109.171 64.12 108.393 64.12H106.633C105.854 64.12 105.129 64.04 104.457 63.88C103.795 63.7093 103.219 63.4373 102.729 63.064C102.249 62.68 101.87 62.1893 101.593 61.592C101.326 60.9947 101.193 60.264 101.193 59.4ZM100.297 59.4C100.297 60.4133 100.451 61.2773 100.761 61.992C101.081 62.696 101.518 63.272 102.073 63.72C102.638 64.168 103.305 64.4987 104.073 64.712C104.851 64.9147 105.705 65.016 106.633 65.016H108.393C109.321 65.016 110.169 64.9147 110.937 64.712C111.705 64.4987 112.366 64.168 112.921 63.72C113.486 63.272 113.923 62.696 114.233 61.992C114.542 61.2773 114.697 60.4133 114.697 59.4C114.697 58.3867 114.542 57.528 114.233 56.824C113.923 56.1093 113.486 55.528 112.921 55.08C112.366 54.632 111.705 54.3067 110.937 54.104C110.169 53.8907 109.321 53.784 108.393 53.784H106.633C105.705 53.784 104.851 53.8907 104.073 54.104C103.305 54.3067 102.638 54.632 102.073 55.08C101.518 55.528 101.081 56.1093 100.761 56.824C100.451 57.528 100.297 58.3867 100.297 59.4ZM99.8966 59.4C99.8966 58.312 100.062 57.3893 100.393 56.632C100.723 55.864 101.187 55.24 101.785 54.76C102.382 54.28 103.091 53.9333 103.913 53.72C104.745 53.496 105.651 53.384 106.633 53.384H108.393C109.011 53.384 109.593 53.4213 110.137 53.496C110.691 53.56 111.235 53.704 111.769 53.928C112.302 54.1413 112.83 54.4507 113.353 54.856C113.886 55.2507 114.435 55.784 115.001 56.456C115.481 56.936 115.875 57.5707 116.185 58.36C116.494 59.1493 116.649 60.0293 116.649 61C116.649 62.0773 116.483 62.9947 116.153 63.752C115.833 64.5093 115.374 65.1227 114.777 65.592C114.19 66.072 113.486 66.4187 112.665 66.632C111.854 66.856 110.963 66.968 109.993 66.968H108.233C107.145 66.968 106.131 66.8453 105.193 66.6C104.254 66.3547 103.481 65.9333 102.873 65.336C102.265 64.8027 101.769 64.3013 101.385 63.832C101.001 63.352 100.697 62.8773 100.473 62.408C100.259 61.9387 100.11 61.4587 100.025 60.968C99.9393 60.4773 99.8966 59.9547 99.8966 59.4ZM108.393 61.848C108.809 61.848 109.203 61.8107 109.577 61.736C109.961 61.6507 110.297 61.512 110.585 61.32C110.873 61.128 111.097 60.8773 111.257 60.568C111.427 60.248 111.513 59.8587 111.513 59.4C111.513 59.144 111.481 58.9093 111.417 58.696C110.979 58.568 110.505 58.504 109.993 58.504H108.233C107.806 58.504 107.401 58.5467 107.017 58.632C106.633 58.7173 106.291 58.856 105.993 59.048C105.705 59.24 105.475 59.496 105.305 59.816C105.134 60.136 105.049 60.5307 105.049 61C105.049 61.256 105.07 61.4693 105.113 61.64C105.337 61.7147 105.577 61.768 105.833 61.8C106.089 61.832 106.355 61.848 106.633 61.848H108.393ZM126.283 63.144C126.902 63.144 127.478 63.08 128.011 62.952C128.555 62.8133 129.025 62.6 129.419 62.312C129.825 62.0133 130.139 61.6293 130.363 61.16C130.587 60.68 130.699 60.0933 130.699 59.4C130.699 58.7173 130.582 58.136 130.347 57.656C130.123 57.176 129.814 56.792 129.419 56.504C129.025 56.2053 128.555 55.992 128.011 55.864C127.478 55.7253 126.902 55.656 126.283 55.656H124.523C123.894 55.656 123.307 55.7253 122.763 55.864C122.23 55.992 121.766 56.2053 121.371 56.504C120.977 56.792 120.662 57.176 120.427 57.656C120.203 58.136 120.091 58.7173 120.091 59.4C120.091 60.0933 120.203 60.68 120.427 61.16C120.662 61.6293 120.977 62.0133 121.371 62.312C121.766 62.6107 122.23 62.824 122.763 62.952C123.307 63.08 123.894 63.144 124.523 63.144H126.283ZM124.523 62.248C124.043 62.248 123.59 62.2 123.163 62.104C122.737 62.008 122.363 61.8533 122.043 61.64C121.723 61.416 121.467 61.1227 121.275 60.76C121.083 60.3973 120.987 59.944 120.987 59.4C120.987 58.8667 121.083 58.4187 121.275 58.056C121.467 57.6933 121.723 57.4 122.043 57.176C122.374 56.952 122.753 56.792 123.179 56.696C123.606 56.6 124.054 56.552 124.523 56.552H126.283C126.753 56.552 127.201 56.6 127.627 56.696C128.054 56.792 128.427 56.952 128.747 57.176C129.067 57.4 129.323 57.6933 129.515 58.056C129.707 58.4187 129.803 58.8667 129.803 59.4C129.803 59.9333 129.707 60.3813 129.515 60.744C129.334 61.1067 129.083 61.4 128.763 61.624C128.443 61.848 128.07 62.008 127.643 62.104C127.217 62.2 126.763 62.248 126.283 62.248H124.523ZM119.083 59.4C119.083 58.536 119.217 57.8053 119.483 57.208C119.761 56.6107 120.139 56.1253 120.619 55.752C121.11 55.368 121.686 55.096 122.347 54.936C123.019 54.7653 123.745 54.68 124.523 54.68H126.283C127.062 54.68 127.782 54.7653 128.443 54.936C129.105 55.1067 129.675 55.3787 130.155 55.752C130.646 56.1253 131.025 56.6107 131.291 57.208C131.569 57.8053 131.707 58.536 131.707 59.4C131.707 60.264 131.569 60.9947 131.291 61.592C131.025 62.1893 130.646 62.6747 130.155 63.048C129.675 63.4213 129.105 63.6933 128.443 63.864C127.782 64.0347 127.062 64.12 126.283 64.12H124.523C123.745 64.12 123.019 64.04 122.347 63.88C121.686 63.7093 121.11 63.4373 120.619 63.064C120.139 62.68 119.761 62.1893 119.483 61.592C119.217 60.9947 119.083 60.264 119.083 59.4ZM118.187 59.4C118.187 60.4133 118.342 61.2773 118.651 61.992C118.971 62.696 119.409 63.272 119.963 63.72C120.529 64.168 121.195 64.4987 121.963 64.712C122.742 64.9147 123.595 65.016 124.523 65.016H126.283C127.211 65.016 128.059 64.9147 128.827 64.712C129.595 64.4987 130.257 64.168 130.811 63.72C131.377 63.272 131.814 62.696 132.123 61.992C132.433 61.2773 132.587 60.4133 132.587 59.4C132.587 58.3867 132.433 57.528 132.123 56.824C131.814 56.1093 131.377 55.528 130.811 55.08C130.257 54.632 129.595 54.3067 128.827 54.104C128.059 53.8907 127.211 53.784 126.283 53.784H124.523C123.595 53.784 122.742 53.8907 121.963 54.104C121.195 54.3067 120.529 54.632 119.963 55.08C119.409 55.528 118.971 56.1093 118.651 56.824C118.342 57.528 118.187 58.3867 118.187 59.4ZM117.787 59.4C117.787 58.312 117.953 57.3893 118.283 56.632C118.614 55.864 119.078 55.24 119.675 54.76C120.273 54.28 120.982 53.9333 121.803 53.72C122.635 53.496 123.542 53.384 124.523 53.384H126.283C126.902 53.384 127.483 53.4213 128.027 53.496C128.582 53.56 129.126 53.704 129.659 53.928C130.193 54.1413 130.721 54.4507 131.243 54.856C131.777 55.2507 132.326 55.784 132.891 56.456C133.371 56.936 133.766 57.5707 134.075 58.36C134.385 59.1493 134.539 60.0293 134.539 61C134.539 62.0773 134.374 62.9947 134.043 63.752C133.723 64.5093 133.265 65.1227 132.667 65.592C132.081 66.072 131.377 66.4187 130.555 66.632C129.745 66.856 128.854 66.968 127.883 66.968H126.123C125.035 66.968 124.022 66.8453 123.083 66.6C122.145 66.3547 121.371 65.9333 120.763 65.336C120.155 64.8027 119.659 64.3013 119.275 63.832C118.891 63.352 118.587 62.8773 118.363 62.408C118.15 61.9387 118.001 61.4587 117.915 60.968C117.83 60.4773 117.787 59.9547 117.787 59.4ZM126.283 61.848C126.699 61.848 127.094 61.8107 127.467 61.736C127.851 61.6507 128.187 61.512 128.475 61.32C128.763 61.128 128.987 60.8773 129.147 60.568C129.318 60.248 129.403 59.8587 129.403 59.4C129.403 59.144 129.371 58.9093 129.307 58.696C128.87 58.568 128.395 58.504 127.883 58.504H126.123C125.697 58.504 125.291 58.5467 124.907 58.632C124.523 58.7173 124.182 58.856 123.883 59.048C123.595 59.24 123.366 59.496 123.195 59.816C123.025 60.136 122.939 60.5307 122.939 61C122.939 61.256 122.961 61.4693 123.003 61.64C123.227 61.7147 123.467 61.768 123.723 61.8C123.979 61.832 124.246 61.848 124.523 61.848H126.283ZM138.443 54.68V63.144H147.483V64.12H137.483V54.68H138.443ZM148.363 65.016V62.248H139.339V53.784H136.603V65.016H148.363ZM136.203 53.384H139.739L141.291 55.032V61.848H148.763L150.315 63.496V66.968H137.851L136.203 65.416V53.384Z" fill="white"/>
</svg>
