<svg width="65" height="65" viewBox="0 0 65 65" fill="none" xmlns="http://www.w3.org/2000/svg">
<path d="M32.5 0C14.5507 0 0 14.5507 0 32.5C0 50.4493 14.5507 65 32.5 65C50.4493 65 65 50.4493 65 32.5C65 14.5507 50.4493 0 32.5 0ZM49.3923 20.5583L43.62 48.1152C43.5501 48.4485 43.3976 48.7589 43.1765 49.0179C42.9554 49.2769 42.6728 49.4762 42.3545 49.5975C42.0363 49.7187 41.6927 49.7581 41.3553 49.7119C41.0179 49.6657 40.6976 49.5354 40.4237 49.3331L32.0275 43.13L26.9407 47.9289C26.8741 47.9917 26.7957 48.0406 26.71 48.0728C26.6243 48.105 26.5331 48.1197 26.4416 48.1163C26.3501 48.1128 26.2602 48.0911 26.1772 48.0525C26.0942 48.014 26.0197 47.9592 25.9581 47.8915L25.8488 47.7714L26.7326 39.218L42.6632 24.6627C42.742 24.5908 42.791 24.492 42.8005 24.3858C42.8101 24.2796 42.7795 24.1737 42.7147 24.089C42.65 24.0042 42.5559 23.9468 42.4509 23.9281C42.3459 23.9093 42.2377 23.9306 42.1477 23.9877L21.7744 36.8823L13 33.9355C12.7667 33.8571 12.5634 33.7084 12.4179 33.5099C12.2724 33.3114 12.1919 33.0727 12.1875 32.8266C12.183 32.5806 12.2548 32.3391 12.393 32.1355C12.5312 31.9318 12.7291 31.7759 12.9594 31.6892L47.29 18.7566C47.5549 18.6569 47.8416 18.6302 48.1203 18.6793C48.3989 18.7284 48.6593 18.8514 48.8741 19.0355C49.089 19.2197 49.2504 19.4581 49.3416 19.726C49.4327 19.9939 49.4502 20.2813 49.3923 20.5583Z" fill="white"/>
</svg>
