<svg width="65" height="65" viewBox="0 0 65 65" fill="none" xmlns="http://www.w3.org/2000/svg">
<g clip-path="url(#clip0_17_29)">
<path d="M32.5 0C14.5507 0 0 14.5507 0 32.5C0 50.4493 14.5507 65 32.5 65C50.4493 65 65 50.4493 65 32.5C65 14.5507 50.4493 0 32.5 0ZM49.8117 43.5322H45.6876C45.241 43.5327 44.7999 43.4326 44.3973 43.2391C43.9947 43.0457 43.6409 42.764 43.3621 42.415C42.1253 40.8623 39.6888 38.109 37.1306 36.9265C36.9824 36.8571 36.8192 36.8262 36.6559 36.8367C36.4926 36.8471 36.3346 36.8985 36.1965 36.9862C36.0584 37.0739 35.9446 37.1949 35.8656 37.3382C35.7867 37.4815 35.7451 37.6424 35.7448 37.806V41.8848C35.7448 42.1011 35.7023 42.3153 35.6195 42.5152C35.5368 42.7151 35.4155 42.8967 35.2625 43.0497C35.1096 43.2027 34.928 43.324 34.7281 43.4068C34.5282 43.4896 34.314 43.5322 34.0977 43.5322H32.1907C29.7108 43.5322 24.3704 42.0226 20.1151 35.8238C16.4893 30.5425 14.8731 26.4495 13.9306 23.131C13.8758 22.9365 13.8668 22.7319 13.9044 22.5334C13.9419 22.3348 14.025 22.1477 14.147 21.9866C14.2691 21.8256 14.4268 21.695 14.6078 21.6052C14.7888 21.5153 14.9881 21.4686 15.1902 21.4688H19.3621C19.7784 21.4684 20.1836 21.6024 20.5175 21.8509C20.8515 22.0993 21.0963 22.4489 21.2156 22.8476C21.9915 25.4424 24.0009 31.0399 27.5528 33.8273C27.6611 33.9127 27.7912 33.9658 27.9283 33.9807C28.0654 33.9956 28.2039 33.9716 28.328 33.9115C28.4521 33.8514 28.5568 33.7575 28.6301 33.6407C28.7034 33.5239 28.7423 33.3888 28.7424 33.2509V26.7172C28.7424 25.4259 28.1828 24.134 27.3094 23.1244C27.1835 22.9796 27.102 22.8016 27.0745 22.6117C27.0469 22.4219 27.0746 22.2281 27.1542 22.0535C27.2338 21.8789 27.3619 21.7309 27.5232 21.6271C27.6846 21.5233 27.8724 21.4682 28.0643 21.4682H34.4965C34.8277 21.4682 35.1453 21.5997 35.3796 21.8339C35.6138 22.0681 35.7454 22.3858 35.7454 22.717V31.518C35.7454 31.6454 35.7805 31.7704 35.8468 31.8792C35.9131 31.988 36.0081 32.0764 36.1213 32.1348C36.2345 32.1932 36.3616 32.2194 36.4887 32.2104C36.6158 32.2013 36.738 32.1575 36.8418 32.0837C38.0225 31.2433 39.0336 30.0017 39.9637 28.6061C41.1342 26.8506 42.5626 23.9487 43.2791 22.4426C43.4178 22.1509 43.6364 21.9044 43.9095 21.7319C44.1826 21.5593 44.499 21.4678 44.8221 21.4678H49.3721C49.5621 21.4677 49.7489 21.5161 49.915 21.6085C50.081 21.7009 50.2207 21.8341 50.3208 21.9956C50.4209 22.1571 50.4781 22.3415 50.487 22.5312C50.4959 22.721 50.4562 22.9099 50.3716 23.0801C49.2234 25.383 46.9871 29.6078 44.8828 32.0864C44.5815 32.4428 44.434 32.9043 44.4727 33.3693C44.5113 33.8344 44.7329 34.2652 45.0888 34.5671C46.4605 35.7391 48.602 37.9059 50.9107 41.5151C51.0381 41.7126 51.1099 41.9408 51.1186 42.1757C51.1272 42.4106 51.0725 42.6435 50.96 42.8499C50.8476 43.0563 50.6816 43.2286 50.4795 43.3487C50.2774 43.4687 50.0468 43.5321 49.8117 43.5322Z" fill="white"/>
</g>
<defs>
<clipPath id="clip0_17_29">
<rect width="65" height="65" fill="white"/>
</clipPath>
</defs>
</svg>
