<svg width="65" height="65" viewBox="0 0 65 65" fill="none" xmlns="http://www.w3.org/2000/svg">
<g clip-path="url(#clip0_17_26)">
<path d="M33.3885 16.2347C30.6113 16.2349 27.8866 16.9915 25.5068 18.4232C23.1271 19.8549 21.1823 21.9077 19.8811 24.3613C18.5799 26.8148 17.9716 29.5764 18.1214 32.3496C18.2712 35.1228 19.1734 37.8028 20.7313 40.1019L19.2372 45.8662L25.2447 44.4645C27.2504 45.7266 29.5219 46.5051 31.8801 46.7387C34.2382 46.9723 36.6184 46.6546 38.8327 45.8106C41.047 44.9666 43.0348 43.6195 44.6392 41.8756C46.2435 40.1316 47.4206 38.0386 48.0774 35.7618C48.7343 33.485 48.8529 31.0866 48.4239 28.7561C47.9949 26.4256 47.03 24.2267 45.6055 22.333C44.181 20.4393 42.3358 18.9026 40.2156 17.8443C38.0954 16.7859 35.7582 16.2349 33.3885 16.2347ZM40.9067 39.8716C38.7681 40.8746 34.3033 40.3513 29.5996 36.3258C24.8958 32.3004 23.6893 27.9698 24.3494 25.7021C25.0096 23.4345 27.6032 23.0156 28.0925 23.1239C28.5818 23.2321 31.0284 27.1109 30.6951 27.5634C30.3617 28.0159 28.7513 29.6264 28.7513 29.6264C28.7513 29.6264 28.6835 31.2742 31.7073 33.8621C34.731 36.4499 36.3487 36.1283 36.3487 36.1283C36.3487 36.1283 37.6911 34.2875 38.0865 33.889C38.482 33.4905 42.6924 35.3084 42.8749 35.7751C43.0575 36.2418 43.0444 38.8691 40.906 39.8716H40.9067Z" fill="white"/>
<path d="M32.5 0C14.5507 0 0 14.5507 0 32.5C0 50.4493 14.5507 65 32.5 65C50.4493 65 65 50.4493 65 32.5C65 14.5507 50.4493 0 32.5 0ZM33.3887 50.0133C30.3379 50.0177 27.3338 49.2638 24.6467 47.8193L14.8154 50.2734L17.3056 40.6504C15.299 37.1155 14.513 33.0179 15.0693 28.9914C15.6255 24.9648 17.493 21.2338 20.3828 18.3753C23.2726 15.5168 27.0238 13.6901 31.0562 13.1778C35.0885 12.6655 39.1773 13.4961 42.6901 15.5411C46.203 17.5862 48.9441 20.7317 50.4896 24.4912C52.035 28.2506 52.2987 32.4146 51.2398 36.339C50.1809 40.2634 47.8584 43.7296 44.6316 46.2014C41.4048 48.6732 37.4534 50.0129 33.3887 50.0133Z" fill="white"/>
</g>
<defs>
<clipPath id="clip0_17_26">
<rect width="65" height="65" fill="white"/>
</clipPath>
</defs>
</svg>
